<?xml version="1.0" encoding="utf-8"?>
<!-- Generator: Adobe Illustrator 25.1.0, SVG Export Plug-In . SVG Version: 6.00 Build 0)  -->
<svg version="1.1" id="Capa_1" xmlns="http://www.w3.org/2000/svg" xmlns:xlink="http://www.w3.org/1999/xlink" x="0px" y="0px"
	 viewBox="0 0 457 457" style="enable-background:new 0 0 457 457;" xml:space="preserve">
<style type="text/css">
	.st0{fill:none;stroke:#FFFFFF;stroke-width:100;stroke-miterlimit:10;}
	.st1{fill:#784BAD;}
</style>
<path class="st0" d="M358.3,446.7c-3.8,0-7.6-1.2-10.8-3.5l-119-86.5l-119,86.5c-6.4,4.7-15.2,4.7-21.6,0s-9.1-13-6.7-20.6
	l45.5-139.9l-119-86.5c-6.4-4.7-9.1-13-6.7-20.6c2.5-7.6,9.5-12.7,17.5-12.7h147.1L211,23c2.5-7.6,9.5-12.7,17.5-12.7
	s15,5.1,17.5,12.7l45.5,139.9h147.1c8,0,15,5.1,17.5,12.7c2.5,7.6-0.2,15.9-6.7,20.6l-119,86.5l45.5,139.9
	c2.5,7.6-0.2,15.9-6.7,20.6C365.9,445.5,362.1,446.7,358.3,446.7z"/>
<path class="st1" d="M358.3,446.7c-3.8,0-7.6-1.2-10.8-3.5l-119-86.5l-119,86.5c-6.4,4.7-15.2,4.7-21.6,0s-9.1-13-6.7-20.6
	l45.5-139.9l-119-86.5c-6.4-4.7-9.1-13-6.7-20.6c2.5-7.6,9.5-12.7,17.5-12.7h147.1L211,23c2.5-7.6,9.5-12.7,17.5-12.7
	s15,5.1,17.5,12.7l45.5,139.9h147.1c8,0,15,5.1,17.5,12.7c2.5,7.6-0.2,15.9-6.7,20.6l-119,86.5l45.5,139.9
	c2.5,7.6-0.2,15.9-6.7,20.6C365.9,445.5,362.1,446.7,358.3,446.7z"/>
</svg>
